<svg width="63" height="63" viewBox="0 0 63 63" fill="none" xmlns="http://www.w3.org/2000/svg">
<path d="M49 0H14C6.26801 0 0 6.26801 0 14V49C0 56.732 6.26801 63 14 63H49C56.732 63 63 56.732 63 49V14C63 6.26801 56.732 0 49 0Z" fill="#1B2F3E"/>
<rect x="4" y="43" width="53" height="4" rx="0.5" fill="#79EB51"/>
<rect x="4" y="49" width="53" height="4" rx="0.5" fill="#51EBE8"/>
<path d="M18.9531 38.4531C16.1302 38.4531 13.6823 37.9115 11.6094 36.8281C9.54688 35.7448 7.95312 34.1979 6.82812 32.1875C5.70312 30.1771 5.14062 27.7865 5.14062 25.0156C5.14062 23.026 5.43229 21.2656 6.01562 19.7344C6.60938 18.2031 7.42188 16.9115 8.45312 15.8594C9.49479 14.8073 10.6875 14.0156 12.0312 13.4844C13.375 12.9427 14.8021 12.6719 16.3125 12.6719C17.8958 12.6719 19.2656 12.9219 20.4219 13.4219C21.5781 13.9219 22.5312 14.651 23.2812 15.6094L24.0781 13.125H28.375V23.4688H22.6719C22.5885 21.4688 22.1927 20.0885 21.4844 19.3281C20.7865 18.5677 19.8698 18.1875 18.7344 18.1875C17.901 18.1875 17.1198 18.4219 16.3906 18.8906C15.6719 19.3594 15.0885 20.0781 14.6406 21.0469C14.2031 22.0156 13.9844 23.2552 13.9844 24.7656C13.9844 26.9948 14.5625 28.7031 15.7188 29.8906C16.8854 31.0677 18.5208 31.6562 20.625 31.6562C21.8646 31.6562 23.0781 31.4479 24.2656 31.0312C25.4531 30.6146 26.5573 29.974 27.5781 29.1094L28 29.2969V35.8906C26.7917 36.776 25.3646 37.4271 23.7188 37.8438C22.0833 38.25 20.4948 38.4531 18.9531 38.4531ZM38.4531 38L32.2969 18.5156H30.0312V13.125H44.0781V18.5156H41.5L45.4844 32.4688L49.4688 18.5156H46.8906V13.125H57.2812V18.5156H55.0156L48.875 38H38.4531Z" fill="white"/>
</svg>
