<svg width="63" height="63" viewBox="0 0 63 63" fill="none" xmlns="http://www.w3.org/2000/svg">
<path d="M49 0H14C6.26801 0 0 6.26801 0 14V49C0 56.732 6.26801 63 14 63H49C56.732 63 63 56.732 63 49V14C63 6.26801 56.732 0 49 0Z" fill="#EBEBEB"/>
<rect x="5" y="38" width="53" height="7" rx="0.5" fill="#EE9D4C"/>
<rect x="5" y="48" width="53" height="7" rx="0.5" fill="#1AB6BC"/>
<path d="M18.9531 34.4531C16.1302 34.4531 13.6823 33.9115 11.6094 32.8281C9.54688 31.7448 7.95312 30.1979 6.82812 28.1875C5.70312 26.1771 5.14062 23.7865 5.14062 21.0156C5.14062 19.026 5.43229 17.2656 6.01562 15.7344C6.60938 14.2031 7.42188 12.9115 8.45312 11.8594C9.49479 10.8073 10.6875 10.0156 12.0312 9.48438C13.375 8.94271 14.8021 8.67188 16.3125 8.67188C17.8958 8.67188 19.2656 8.92188 20.4219 9.42188C21.5781 9.92188 22.5312 10.651 23.2812 11.6094L24.0781 9.125H28.375V19.4688H22.6719C22.5885 17.4688 22.1927 16.0885 21.4844 15.3281C20.7865 14.5677 19.8698 14.1875 18.7344 14.1875C17.901 14.1875 17.1198 14.4219 16.3906 14.8906C15.6719 15.3594 15.0885 16.0781 14.6406 17.0469C14.2031 18.0156 13.9844 19.2552 13.9844 20.7656C13.9844 22.9948 14.5625 24.7031 15.7188 25.8906C16.8854 27.0677 18.5208 27.6562 20.625 27.6562C21.8646 27.6562 23.0781 27.4479 24.2656 27.0312C25.4531 26.6146 26.5573 25.974 27.5781 25.1094L28 25.2969V31.8906C26.7917 32.776 25.3646 33.4271 23.7188 33.8438C22.0833 34.25 20.4948 34.4531 18.9531 34.4531ZM38.4531 34L32.2969 14.5156H30.0312V9.125H44.0781V14.5156H41.5L45.4844 28.4688L49.4688 14.5156H46.8906V9.125H57.2812V14.5156H55.0156L48.875 34H38.4531Z" fill="#1B2F3E"/>
</svg>
